<svg width="32" height="32" viewBox="0 0 32 32" fill="none" xmlns="http://www.w3.org/2000/svg">
<path d="M22 11.5058C21.4533 11.5058 21 11.0524 21 10.5058V8.66576C21 7.26576 20.4 5.90576 19.36 4.9591C18.3067 3.9991 16.9467 3.5591 15.5067 3.69243C13.1067 3.9191 11 6.37243 11 8.93243V10.2258C11 10.7724 10.5467 11.2258 10 11.2258C9.45333 11.2258 9 10.7724 9 10.2258V8.9191C9 5.33243 11.8933 2.02576 15.32 1.69243C17.32 1.50576 19.24 2.13243 20.7067 3.4791C22.16 4.7991 23 6.69243 23 8.66576V10.5058C23 11.0524 22.5467 11.5058 22 11.5058Z" fill="#0086b4"/>
<path d="M20 30.3327H12C5.84 30.3327 4.69334 27.466 4.4 24.6793L3.4 16.6927C3.25334 15.2527 3.2 13.186 4.6 11.6393C5.8 10.306 7.78667 9.66602 10.6667 9.66602H21.3333C24.2267 9.66602 26.2133 10.3193 27.4 11.6393C28.7867 13.186 28.7467 15.2527 28.6 16.666L27.6 24.6793C27.3067 27.466 26.16 30.3327 20 30.3327ZM10.6667 11.666C8.41334 11.666 6.86667 12.106 6.08 12.986C5.42667 13.706 5.21334 14.8127 5.38667 16.466L6.38667 24.4527C6.61334 26.586 7.2 28.346 12 28.346H20C24.8 28.346 25.3867 26.5993 25.6133 24.4794L26.6133 16.466C26.7867 14.8393 26.5733 13.7327 25.92 12.9993C25.1333 12.106 23.5867 11.666 21.3333 11.666H10.6667Z" fill="#0086b4"/>
<path d="M20.56 17.5339C19.8134 17.5339 19.2134 16.9339 19.2134 16.2005C19.2134 15.4672 19.8134 14.8672 20.5467 14.8672C21.28 14.8672 21.88 15.4672 21.88 16.2005C21.88 16.9339 21.2934 17.5339 20.56 17.5339Z" fill="#0086b4"/>
<path d="M11.2265 17.5339C10.4799 17.5339 9.87988 16.9339 9.87988 16.2005C9.87988 15.4672 10.4799 14.8672 11.2132 14.8672C11.9465 14.8672 12.5465 15.4672 12.5465 16.2005C12.5465 16.9339 11.9599 17.5339 11.2265 17.5339Z" fill="#0086b4"/>
</svg>
