<svg width="32" height="32" viewBox="0 0 32 32" fill="none" xmlns="http://www.w3.org/2000/svg">
<path d="M16 17.7338C15.8266 17.7338 15.6533 17.6938 15.4933 17.6005L3.71996 10.7872C3.23997 10.5072 3.07994 9.89381 3.35994 9.41381C3.63994 8.93381 4.23994 8.77379 4.73327 9.05379L16 15.5738L27.1999 9.09383C27.6799 8.81383 28.2933 8.98719 28.5733 9.45385C28.8533 9.93385 28.68 10.5471 28.2133 10.8271L16.52 17.6005C16.3466 17.6805 16.1733 17.7338 16 17.7338Z" fill="#0086b4"/>
<path d="M16 29.814C15.4533 29.814 15 29.3607 15 28.814V16.7207C15 16.174 15.4533 15.7207 16 15.7207C16.5467 15.7207 17 16.174 17 16.7207V28.814C17 29.3607 16.5467 29.814 16 29.814Z" fill="#0086b4"/>
<path d="M16.0003 30.3327C14.827 30.3327 13.667 30.0793 12.747 29.5727L5.62699 25.6127C3.69366 24.546 2.18701 21.9727 2.18701 19.7593V12.226C2.18701 10.0127 3.69366 7.45271 5.62699 6.37271L12.747 2.42602C14.5737 1.41268 17.427 1.41268 19.2537 2.42602L26.3737 6.38598C28.307 7.45264 29.8136 10.026 29.8136 12.2393V19.7727C29.8136 21.986 28.307 24.546 26.3737 25.626L19.2537 29.5727C18.3337 30.0793 17.1737 30.3327 16.0003 30.3327ZM16.0003 3.66601C15.1603 3.66601 14.3337 3.83935 13.7203 4.17268L6.60034 8.13264C5.32034 8.85264 4.18701 10.7593 4.18701 12.2393V19.7727C4.18701 21.2394 5.32034 23.1593 6.60034 23.8793L13.7203 27.8393C14.9337 28.5193 17.067 28.5193 18.2803 27.8393L25.4003 23.8793C26.6803 23.1593 27.8136 21.2527 27.8136 19.7727V12.2393C27.8136 10.7727 26.6803 8.85264 25.4003 8.13264L18.2803 4.17268C17.667 3.83935 16.8403 3.66601 16.0003 3.66601Z" fill="#0086b4"/>
<path d="M22.6671 18.6527C22.1204 18.6527 21.6671 18.1994 21.6671 17.6527V13.3595L9.50707 6.3461C9.02707 6.0661 8.86705 5.45274 9.14705 4.98608C9.42705 4.50608 10.0271 4.34605 10.5071 4.62605L23.1604 11.9328C23.4671 12.1061 23.6671 12.4394 23.6671 12.7994V17.6794C23.6671 18.1994 23.2137 18.6527 22.6671 18.6527Z" fill="#0086b4"/>
</svg>

