<svg width="32" height="32" viewBox="0 0 32 32" fill="none" xmlns="http://www.w3.org/2000/svg">
<path d="M23.4665 30.0804H8.53313C6.10646 30.0804 3.89313 28.2137 3.49313 25.8137L1.71979 15.2005C1.43979 13.5471 2.2398 11.4271 3.5598 10.3738L12.7998 2.97374C14.5865 1.53374 17.3998 1.54709 19.1998 2.98709L28.4398 10.3738C29.7465 11.4271 30.5465 13.5471 30.2798 15.2005L28.5065 25.8137C28.1065 28.1737 25.8531 30.0804 23.4665 30.0804ZM15.9865 3.92044C15.2798 3.92044 14.5731 4.13373 14.0531 4.54706L4.81314 11.9471C4.05314 12.5605 3.53314 13.9204 3.69314 14.8804L5.46648 25.4938C5.70648 26.8938 7.10646 28.0804 8.53313 28.0804H23.4665C24.8931 28.0804 26.2931 26.8937 26.5331 25.4804L28.3065 14.8671C28.4665 13.9071 27.9331 12.5338 27.1865 11.9338L17.9465 4.54706C17.4131 4.13373 16.7065 3.92044 15.9865 3.92044Z" fill="#0086b4"/>
<path d="M15.9998 21.6667C13.6132 21.6667 11.6665 19.72 11.6665 17.3333C11.6665 14.9467 13.6132 13 15.9998 13C18.3865 13 20.3332 14.9467 20.3332 17.3333C20.3332 19.72 18.3865 21.6667 15.9998 21.6667ZM15.9998 15C14.7198 15 13.6665 16.0533 13.6665 17.3333C13.6665 18.6133 14.7198 19.6667 15.9998 19.6667C17.2798 19.6667 18.3332 18.6133 18.3332 17.3333C18.3332 16.0533 17.2798 15 15.9998 15Z" fill="#0086b4"/>
</svg>

