<svg width="32" height="32" viewBox="0 0 32 32" fill="none" xmlns="http://www.w3.org/2000/svg">
<path d="M16 21C13.24 21 11 18.76 11 16C11 13.24 13.24 11 16 11C18.76 11 21 13.24 21 16C21 18.76 18.76 21 16 21ZM16 13C14.3467 13 13 14.3467 13 16C13 17.6533 14.3467 19 16 19C17.6533 19 19 17.6533 19 16C19 14.3467 17.6533 13 16 13Z" fill="#0086b4"/>
<path d="M20.2798 29.5864C19.9998 29.5864 19.7198 29.5464 19.4398 29.4797C18.6132 29.2531 17.9198 28.7331 17.4798 27.9997L17.3198 27.7331C16.5332 26.3731 15.4532 26.3731 14.6665 27.7331L14.5198 27.9864C14.0798 28.7331 13.3865 29.2664 12.5598 29.4797C11.7198 29.7064 10.8532 29.5864 10.1198 29.1464L7.8265 27.8264C7.01317 27.3597 6.4265 26.5997 6.17317 25.6797C5.93317 24.7597 6.05317 23.8131 6.51984 22.9997C6.9065 22.3197 7.01317 21.7064 6.7865 21.3197C6.55984 20.9331 5.9865 20.7064 5.19984 20.7064C3.25317 20.7064 1.6665 19.1197 1.6665 17.1731V14.8264C1.6665 12.8797 3.25317 11.2931 5.19984 11.2931C5.9865 11.2931 6.55984 11.0664 6.7865 10.6797C7.01317 10.2931 6.91984 9.67973 6.51984 8.99973C6.05317 8.1864 5.93317 7.2264 6.17317 6.31973C6.41317 5.39973 6.99984 4.63973 7.8265 4.17306L10.1332 2.85306C11.6398 1.95973 13.6265 2.47973 14.5332 4.01306L14.6932 4.27973C15.4798 5.63973 16.5598 5.63973 17.3465 4.27973L17.4932 4.0264C18.3998 2.47973 20.3865 1.95973 21.9065 2.8664L24.1998 4.1864C25.0132 4.65306 25.5998 5.41306 25.8532 6.33306C26.0932 7.25306 25.9732 8.19973 25.5065 9.01306C25.1198 9.69306 25.0132 10.3064 25.2398 10.6931C25.4665 11.0797 26.0398 11.3064 26.8265 11.3064C28.7732 11.3064 30.3598 12.8931 30.3598 14.8397V17.1864C30.3598 19.1331 28.7732 20.7197 26.8265 20.7197C26.0398 20.7197 25.4665 20.9464 25.2398 21.3331C25.0132 21.7197 25.1065 22.3331 25.5065 23.0131C25.9732 23.8264 26.1065 24.7864 25.8532 25.6931C25.6132 26.6131 25.0265 27.3731 24.1998 27.8397L21.8932 29.1597C21.3865 29.4397 20.8398 29.5864 20.2798 29.5864ZM15.9998 24.6531C17.1865 24.6531 18.2932 25.3997 19.0532 26.7197L19.1998 26.9731C19.3598 27.2531 19.6265 27.4531 19.9465 27.5331C20.2665 27.6131 20.5865 27.5731 20.8532 27.4131L23.1598 26.0797C23.5065 25.8797 23.7732 25.5464 23.8798 25.1464C23.9865 24.7464 23.9332 24.3331 23.7332 23.9864C22.9732 22.6797 22.8798 21.3331 23.4665 20.3064C24.0532 19.2797 25.2665 18.6931 26.7865 18.6931C27.6398 18.6931 28.3198 18.0131 28.3198 17.1597V14.8131C28.3198 13.9731 27.6398 13.2797 26.7865 13.2797C25.2665 13.2797 24.0532 12.6931 23.4665 11.6664C22.8798 10.6397 22.9732 9.29306 23.7332 7.9864C23.9332 7.63973 23.9865 7.2264 23.8798 6.8264C23.7732 6.4264 23.5198 6.1064 23.1732 5.89306L20.8665 4.57306C20.2932 4.2264 19.5332 4.4264 19.1865 5.01306L19.0398 5.2664C18.2798 6.5864 17.1732 7.33306 15.9865 7.33306C14.7998 7.33306 13.6932 6.5864 12.9332 5.2664L12.7865 4.99973C12.4532 4.43973 11.7065 4.23973 11.1332 4.57306L8.8265 5.9064C8.47984 6.1064 8.21317 6.43973 8.1065 6.83973C7.99984 7.23973 8.05317 7.65306 8.25317 7.99973C9.01317 9.3064 9.1065 10.6531 8.51984 11.6797C7.93317 12.7064 6.71984 13.2931 5.19984 13.2931C4.3465 13.2931 3.6665 13.9731 3.6665 14.8264V17.1731C3.6665 18.0131 4.3465 18.7064 5.19984 18.7064C6.71984 18.7064 7.93317 19.2931 8.51984 20.3197C9.1065 21.3464 9.01317 22.6931 8.25317 23.9997C8.05317 24.3464 7.99984 24.7597 8.1065 25.1597C8.21317 25.5597 8.4665 25.8797 8.81317 26.0931L11.1198 27.4131C11.3998 27.5864 11.7332 27.6264 12.0398 27.5464C12.3598 27.4664 12.6265 27.2531 12.7998 26.9731L12.9465 26.7197C13.7065 25.4131 14.8132 24.6531 15.9998 24.6531Z" fill="#0086b4"/>
</svg>
